<?xml version="1.0" standalone="no"?>
<!DOCTYPE svg PUBLIC "-//W3C//DTD SVG 20010904//EN"
 "http://www.w3.org/TR/2001/REC-SVG-20010904/DTD/svg10.dtd">
<svg version="1.0" xmlns="http://www.w3.org/2000/svg"
 width="700.000000pt" height="700.000000pt" viewBox="0 0 700.000000 700.000000"
 preserveAspectRatio="xMidYMid meet">
<metadata>
Created by potrace 1.14, written by Peter Selinger 2001-2017
</metadata>
<g transform="translate(0.000000,700.000000) scale(0.100000,-0.100000)"
fill="#000000" stroke="none">
<path d="M3195 6714 c-569 -88 -1049 -432 -1377 -987 -192 -325 -312 -681
-379 -1127 l-21 -145 2 -2110 c1 -1377 5 -2113 11 -2120 10 -10 4066 -9 4103
2 19 5 19 46 12 2017 -7 1972 -11 2216 -41 2419 -168 1118 -859 1924 -1758
2052 -129 18 -431 18 -552 -1z m515 -15 c325 -40 616 -161 875 -364 107 -84
326 -310 402 -415 261 -364 424 -779 504 -1285 19 -122 21 -196 30 -1255 5
-619 8 -1577 7 -2130 l-3 -1005 -2034 -8 c-1119 -4 -2037 -4 -2042 0 -4 4 -8
953 -10 2108 -3 2306 -6 2144 57 2466 134 690 501 1283 996 1612 104 69 302
165 425 206 84 28 257 65 343 74 80 9 372 6 450 -4z"/>
<path d="M2047 5213 c-15 -14 -4 -21 54 -32 117 -23 167 -110 189 -330 14
-139 13 -1954 0 -2092 -13 -124 -33 -201 -66 -251 -26 -40 -88 -78 -128 -78
-31 0 -56 -9 -56 -21 0 -5 164 -9 380 -9 242 0 380 4 380 10 0 5 -12 12 -27
15 -90 17 -123 29 -168 60 -148 101 -236 335 -265 699 -12 160 -14 1824 -1
1811 5 -6 153 -320 330 -700 206 -442 317 -691 309 -694 -7 -2 -41 -20 -77
-39 -290 -154 -437 -437 -376 -727 22 -103 67 -187 147 -270 144 -152 310
-239 788 -410 395 -142 561 -224 686 -339 108 -98 155 -185 174 -317 42 -295
-213 -592 -570 -665 -120 -24 -302 -15 -425 20 -120 35 -251 99 -357 176 -111
79 -285 258 -362 373 -33 48 -66 87 -73 87 -11 0 -13 -37 -11 -192 l3 -191 85
-59 c102 -70 315 -177 424 -213 254 -82 531 -88 796 -15 102 28 280 117 365
183 376 289 393 783 37 1067 -133 105 -284 178 -606 290 -371 130 -431 152
-534 201 -252 118 -370 256 -380 444 -7 136 32 259 120 373 39 51 151 147 177
154 8 2 91 -165 230 -462 137 -293 223 -465 232 -465 9 0 74 161 198 498 129
347 189 497 200 497 47 0 235 -132 303 -213 44 -53 103 -144 112 -174 4 -13
14 -23 22 -23 12 0 14 29 12 192 l-3 191 -110 32 c-60 18 -156 41 -212 51 -59
11 -103 23 -103 30 0 9 495 1348 521 1409 5 11 7 -506 5 -1165 -3 -1295 -2
-1276 -61 -1396 -29 -59 -89 -104 -138 -104 -32 0 -57 -9 -57 -21 0 -5 164 -9
380 -9 228 0 380 4 380 9 0 11 -16 16 -73 26 -47 8 -105 57 -128 111 -50 111
-51 147 -56 1133 -5 965 1 1186 35 1317 30 118 82 173 180 189 26 4 42 12 42
21 0 12 -38 14 -247 12 l-248 -3 -285 -767 -285 -767 -90 7 c-105 8 -333 9
-454 2 l-85 -5 -357 750 c-197 413 -363 758 -368 768 -10 15 -32 17 -229 17
-120 0 -222 -3 -225 -7z m1718 -1577 c32 -9 60 -18 62 -19 3 -4 -237 -650
-245 -659 -7 -7 -322 646 -323 667 -1 36 387 45 506 11z"/>
</g>
</svg>
